<?xml version="1.0" encoding="UTF-8"?>
<svg width="166px" height="141px" viewBox="0 0 166 141" version="1.1" xmlns="http://www.w3.org/2000/svg" xmlns:xlink="http://www.w3.org/1999/xlink">
    <!-- Generator: Sketch 46.1 (44463) - http://www.bohemiancoding.com/sketch -->
    <title>Microillustration</title>
    <desc>Created with Sketch.</desc>
    <defs>
        <polygon id="path-1" points="0 140 165.308 140 165.308 0.46 0 0.46"></polygon>
        <path d="M0.254,8.503 C0.254,12.971 3.888,16.594 8.371,16.594 C12.853,16.594 16.487,12.971 16.487,8.503 C16.487,4.034 12.853,0.41 8.371,0.41 C3.888,0.41 0.254,4.034 0.254,8.503 Z" id="path-3"></path>
        <path d="M0.82,11.025 C0.82,16.622 5.37,21.158 10.983,21.158 C16.596,21.158 21.147,16.622 21.147,11.025 C21.147,5.43 16.596,0.892 10.983,0.892 C5.37,0.892 0.82,5.43 0.82,11.025 Z" id="path-5"></path>
        <polygon id="path-7" points="9.308 9.9368 9.308 0.8298 0.2004 0.8298 0.2004 9.9368 9.308 9.9368"></polygon>
    </defs>
    <g id="Page-1" stroke="none" stroke-width="1" fill="none" fill-rule="evenodd">
        <g id="casa_1" transform="translate(-1016.000000, -571.000000)">
            <g id="Resultado" transform="translate(816.000000, 520.000000)">
                <g id="Microillustration" transform="translate(200.000000, 51.000000)">
                    <g id="Group-17" transform="translate(0.000000, 0.540000)">
                        <path d="M132.9833,70.2299 C132.9833,100.5329 108.4173,125.0989 78.1143,125.0989 C47.8113,125.0989 23.2453,100.5329 23.2453,70.2299 C23.2453,39.9269 47.8113,15.3609 78.1143,15.3609 C108.4173,15.3609 132.9833,39.9269 132.9833,70.2299 Z" id="Fill-1" fill="#072146"></path>
                        <polygon id="Fill-3" fill="#C2EEF0" points="108.6556 99.5453 46.9626 99.5453 46.9626 60.2293 78.7506 33.7683 108.6556 60.2293"></polygon>
                        <mask id="mask-2" fill="white">
                            <use xlink:href="#path-1"></use>
                        </mask>
                        <g id="Clip-6"></g>
                        <polygon id="Fill-5" fill="#0086CD" mask="url(#mask-2)" points="45.08 102.646 110.538 102.646 110.538 99.59 45.08 99.59"></polygon>
                        <polygon id="Fill-7" fill="#0086CD" mask="url(#mask-2)" points="118.7054 59.5634 79.0584 23.0534 36.9134 59.5634 36.9134 64.4844 47.5884 64.4844 78.6534 37.1864 108.3074 64.4844 118.7054 64.4844"></polygon>
                        <path d="M84.7338,55.1982 C84.7338,59.1432 81.5358,62.3422 77.5908,62.3422 C73.6458,62.3422 70.4468,59.1432 70.4468,55.1982 C70.4468,51.2532 73.6458,48.0542 77.5908,48.0542 C81.5358,48.0542 84.7338,51.2532 84.7338,55.1982" id="Fill-8" fill="#004283" mask="url(#mask-2)"></path>
                        <path d="M83.3055,55.1982 C83.3055,58.3542 80.7465,60.9132 77.5905,60.9132 C74.4345,60.9132 71.8755,58.3542 71.8755,55.1982 C71.8755,52.0422 74.4345,49.4832 77.5905,49.4832 C80.7465,49.4832 83.3055,52.0422 83.3055,55.1982" id="Fill-9" fill="#00BEFF" mask="url(#mask-2)"></path>
                        <path d="M80.8431,50.517 L72.9091,58.451 C73.9401,59.934 75.6461,60.913 77.5911,60.913 C80.7471,60.913 83.3051,58.354 83.3051,55.198 C83.3051,53.254 82.3271,51.548 80.8431,50.517" id="Fill-10" fill="#0086CD" mask="url(#mask-2)"></path>
                        <polygon id="Fill-11" fill="#004283" mask="url(#mask-2)" points="69.733 99.487 85.448 99.487 85.448 70.914 69.733 70.914"></polygon>
                        <polygon id="Fill-12" fill="#004283" opacity="0.4" style="mix-blend-mode: multiply;" mask="url(#mask-2)" points="69.7328 91.1528 69.7328 99.4868 85.4478 99.4868 85.4478 75.4378"></polygon>
                        <path d="M73.2733,83.6274 C73.2733,84.3174 72.7133,84.8774 72.0233,84.8774 C71.3333,84.8774 70.7733,84.3174 70.7733,83.6274 C70.7733,82.9374 71.3333,82.3774 72.0233,82.3774 C72.7133,82.3774 73.2733,82.9374 73.2733,83.6274" id="Fill-13" fill="#00BEFF" mask="url(#mask-2)"></path>
                        <path d="M9.3456,70.2289 C9.3456,32.2499 40.1336,1.4599 78.1146,1.4599 C116.0946,1.4599 146.8836,32.2499 146.8836,70.2289 C146.8836,108.2099 116.0946,138.9999 78.1146,138.9999 C40.1336,138.9999 9.3456,108.2099 9.3456,70.2289 Z" id="Stroke-14" stroke="#FFFFFF" stroke-width="2" stroke-linecap="round" stroke-dasharray="0,6" mask="url(#mask-2)"></path>
                        <path d="M35.4867,115.7162 C35.4867,120.1852 31.8527,123.8072 27.3707,123.8072 C22.8877,123.8072 19.2537,120.1852 19.2537,115.7162 C19.2537,111.2472 22.8877,107.6232 27.3707,107.6232 C31.8527,107.6232 35.4867,111.2472 35.4867,115.7162" id="Fill-15" fill="#BA9A3D" mask="url(#mask-2)"></path>
                        <path d="M35.4867,114.5029 C35.4867,118.9709 31.8527,122.5939 27.3707,122.5939 C22.8877,122.5939 19.2537,118.9709 19.2537,114.5029 C19.2537,110.0339 22.8877,106.4099 27.3707,106.4099 C31.8527,106.4099 35.4867,110.0339 35.4867,114.5029" id="Fill-16" fill="#F8CD51" mask="url(#mask-2)"></path>
                    </g>
                    <g id="Group-20" transform="translate(19.000000, 106.540000)">
                        <mask id="mask-4" fill="white">
                            <use xlink:href="#path-3"></use>
                        </mask>
                        <g id="Clip-19"></g>
                        <polygon id="Fill-18" fill="#EAB642" mask="url(#mask-4)" points="0.1317 19.1406 19.3957 -0.0654 24.0657 23.7966"></polygon>
                    </g>
                    <g id="Group-27" transform="translate(24.000000, 19.540000)">
                        <path d="M4.4506,97.7153 C4.4506,97.1163 4.2096,96.8753 3.0746,96.3643 C1.4336,95.6213 0.9326,95.0593 0.9326,93.9133 C0.9326,92.7883 1.6496,91.9783 2.7726,91.7353 L2.7726,90.2473 L2.8516,90.2473 L4.1636,90.9433 L4.1636,91.7073 C4.6106,91.7743 5.0136,91.9133 5.3866,92.1263 L5.4576,92.1683 L5.5066,92.1953 L5.4976,92.2513 L5.4846,92.3333 L5.3146,93.3933 L5.2836,93.5923 L5.2626,93.7253 L5.1546,93.6433 L4.9936,93.5213 C4.5486,93.1823 3.9996,92.9873 3.4756,92.9873 C2.7706,92.9873 2.3866,93.3023 2.3866,93.8353 C2.3866,94.3323 2.6356,94.5643 3.7506,95.0723 C5.3976,95.8203 5.9056,96.4153 5.9056,97.6363 C5.9056,98.7713 5.2316,99.6053 4.1636,99.9043 L4.1636,101.4853 L4.0846,101.4853 L2.7726,100.7883 L2.7726,100.0053 C2.1146,99.9493 1.4876,99.7723 0.9596,99.4943 L0.8846,99.4543 L0.8346,99.4273 L0.8426,99.3723 L0.8536,99.2883 L1.0126,98.2043 L1.0406,98.0173 L1.0586,97.8923 L1.1646,97.9613 L1.3236,98.0653 C1.9386,98.4703 2.6226,98.6983 3.2606,98.6983 C4.0016,98.6983 4.4506,98.3243 4.4506,97.7153" id="Fill-21" fill="#FFFFFF"></path>
                        <path d="M121.1464,12.5458 C121.1464,18.1418 116.5964,22.6778 110.9834,22.6778 C105.3704,22.6778 100.8194,18.1418 100.8194,12.5458 C100.8194,6.9498 105.3704,2.4128 110.9834,2.4128 C116.5964,2.4128 121.1464,6.9498 121.1464,12.5458" id="Fill-23" fill="#BA9A3D"></path>
                        <path d="M121.1464,11.0258 C121.1464,16.6218 116.5964,21.1578 110.9834,21.1578 C105.3704,21.1578 100.8194,16.6218 100.8194,11.0258 C100.8194,5.4298 105.3704,0.8928 110.9834,0.8928 C116.5964,0.8928 121.1464,5.4298 121.1464,11.0258" id="Fill-25" fill="#F8CD51"></path>
                    </g>
                    <g id="Group-30" transform="translate(124.000000, 19.540000)">
                        <mask id="mask-6" fill="white">
                            <use xlink:href="#path-5"></use>
                        </mask>
                        <g id="Clip-29"></g>
                        <polygon id="Fill-28" fill="#EAB642" mask="url(#mask-6)" points="0.6669 24.3466 24.7879 0.2976 30.6359 30.1766"></polygon>
                    </g>
                    <g id="Group-42" transform="translate(0.000000, 18.540000)">
                        <path d="M136.3353,14.7968 C136.3353,14.0468 136.0333,13.7448 134.6123,13.1048 C132.5583,12.1748 131.9303,11.4708 131.9303,10.0368 C131.9303,8.6278 132.8283,7.6128 134.2353,7.3088 L134.2353,5.4458 L134.3343,5.4458 L135.9763,6.3178 L135.9763,7.2748 C136.5363,7.3578 137.0413,7.5318 137.5073,7.7978 L137.5973,7.8508 L137.6573,7.8848 L137.6463,7.9548 L137.6293,8.0568 L137.4173,9.3848 L137.3773,9.6338 L137.3513,9.8008 L137.2163,9.6978 L137.0153,9.5458 C136.4593,9.1218 135.7713,8.8768 135.1143,8.8768 C134.2323,8.8768 133.7513,9.2718 133.7513,9.9388 C133.7513,10.5608 134.0623,10.8508 135.4593,11.4878 C137.5213,12.4238 138.1573,13.1698 138.1573,14.6988 C138.1573,16.1188 137.3143,17.1628 135.9763,17.5378 L135.9763,19.5168 L135.8773,19.5168 L134.2353,18.6448 L134.2353,17.6648 C133.4103,17.5938 132.6263,17.3738 131.9643,17.0248 L131.8703,16.9738 L131.8073,16.9408 L131.8183,16.8718 L131.8323,16.7658 L132.0313,15.4098 L132.0663,15.1738 L132.0893,15.0178 L132.2213,15.1048 L132.4193,15.2348 C133.1903,15.7418 134.0473,16.0278 134.8453,16.0278 C135.7733,16.0278 136.3353,15.5598 136.3353,14.7968" id="Fill-31" fill="#FFFFFF"></path>
                        <g id="Group-35" transform="translate(156.000000, 42.000000)">
                            <mask id="mask-8" fill="white">
                                <use xlink:href="#path-7"></use>
                            </mask>
                            <g id="Clip-34"></g>
                            <polygon id="Fill-33" fill="#FADE8E" mask="url(#mask-8)" points="3.6464 4.2758 0.2004 5.3818 3.6464 6.4898 4.7544 9.9368 5.8624 6.4898 9.3084 5.3818 5.8624 4.2758 4.7544 0.8298"></polygon>
                        </g>
                        <polygon id="Fill-36" fill="#FADE8E" points="3.4462 14.8559 0.0002 15.9619 3.4462 17.0709 4.5542 20.5169 5.6622 17.0709 9.1082 15.9619 5.6622 14.8559 4.5542 11.4109"></polygon>
                        <polygon id="Fill-38" fill="#FADE8E" points="153.7997 69.1562 148.9207 70.7222 153.7997 72.2912 155.3687 77.1702 156.9367 72.2912 161.8157 70.7222 156.9367 69.1562 155.3687 64.2782"></polygon>
                        <polygon id="Fill-40" fill="#FADE8E" points="12.5394 2.7875 9.8544 3.6495 12.5394 4.5135 13.4024 7.1975 14.2664 4.5135 16.9504 3.6495 14.2664 2.7875 13.4024 0.1035"></polygon>
                    </g>
                </g>
            </g>
        </g>
    </g>
</svg>